<?xml version="1.0" standalone="no"?>
<!DOCTYPE svg PUBLIC "-//W3C//DTD SVG 20010904//EN"
 "http://www.w3.org/TR/2001/REC-SVG-20010904/DTD/svg10.dtd">
<svg version="1.0" xmlns="http://www.w3.org/2000/svg"
 width="300.000000pt" height="300.000000pt" viewBox="0 0 300.000000 300.000000"
 preserveAspectRatio="xMidYMid meet">
<metadata>
Created by potrace 1.11, written by Peter Selinger 2001-2013
</metadata>
<g transform="translate(0.000000,300.000000) scale(0.100000,-0.100000)"
fill="#000000" stroke="none">
<path d="M0 2321 l0 -680 93 44 c322 153 709 149 1032 -10 469 -231 738 -738
660 -1245 -20 -132 -49 -229 -100 -337 l-44 -93 680 0 679 0 0 1500 0 1500
-1500 0 -1500 0 0 -679z m2452 239 c46 -13 105 -77 114 -124 11 -61 -4 -107
-49 -152 -72 -72 -173 -69 -240 5 -62 68 -62 154 0 222 48 53 103 69 175 49z
m-488 -621 c-182 -182 -231 -226 -242 -217 -11 9 32 56 214 239 182 182 231
226 242 217 11 -9 -32 -56 -214 -239z m-350 -50 c-182 -182 -231 -226 -242
-217 -11 9 32 56 214 239 182 182 231 226 242 217 11 -9 -32 -56 -214 -239z
m300 -300 c-182 -182 -231 -226 -242 -217 -11 9 32 56 214 239 182 182 231
226 242 217 11 -9 -32 -56 -214 -239z"/>
</g>
</svg>
